<svg xmlns="http://www.w3.org/2000/svg" viewBox="70 113 1460 580" role="img" aria-label="Muzzi &amp; Almeida Advocacia"><path fill="#fff" fill-rule="evenodd" d="M1110 634 1098 637 1100 637 1102 640 1102 675 1100 678 1097 679 1104 678 1105 679 1115 679 1111 676 1110 673Z M1189 635 1185 640 1185 646 1188 650 1192 652 1182 656 1178 660 1177 670 1179 674 1185 678 1195 679 1203 676 1208 670 1213 677 1218 679 1222 679 1218 676 1217 672 1217 645 1215 641 1210 636 1205 634 1196 633Z M1208 652 1209 653 1209 666 1205 674 1197 678 1190 677 1185 671 1185 662 1187 658 1194 653Z M1185 641 1187 637 1192 634 1200 634 1206 638 1209 645 1209 650 1202 652 1190 651 1186 647Z M1027 634 1019 633 1010 635 1005 638 999 646 997 656 999 666 1006 675 1012 678 1017 679 1025 678 1029 676 1034 671 1036 667 1031 674 1025 678 1014 677 1009 672 1007 668 1005 652 1009 639 1015 634 1024 634 1030 639 1033 647 1035 642 1035 638Z M904 635 900 639 899 643 901 648 907 652 900 654 893 659 891 664 891 668 893 673 899 678 909 679 916 677 923 669 924 673 927 677 936 679 932 674 932 647 929 640 926 637 919 634 910 633Z M923 652 924 653 924 664 921 672 917 676 911 678 903 676 901 674 899 668 899 664 901 659 906 654 912 652Z M900 640 906 634 915 634 922 640 924 650 917 652 905 651 900 646Z M815 633 807 634 801 637 795 643 792 651 792 661 795 669 802 676 811 679 822 677 830 668 830 667 828 671 823 676 819 678 811 678 805 674 801 667 800 648 803 640 810 634 820 635 825 640 827 646 828 646 830 638 824 635Z M708 633 695 637 689 643 686 651 686 661 688 667 695 675 701 678 711 679 722 675 727 670 731 660 731 652 727 642 722 637 715 634Z M704 634 713 634 716 636 720 641 723 653 722 665 720 671 715 677 709 679 702 677 698 673 694 661 694 650 698 639Z M586 633 593 645 607 679 624 637 628 634 618 634 617 633 617 634 620 634 623 638 618 651 613 652 611 649 610 637 607 634 603 633 601 634 587 634Z M601 634 606 634 609 636 611 649 613 652 617 653 613 665 611 667 599 640 599 636Z M390 622 371 670 365 679 373 679 370 675 370 671 374 661 377 657 380 657 385 662 390 673 395 678 398 679 405 678 417 679 413 675Z M386 634 403 672 403 676 400 679 394 677 390 673 384 660 377 656 384 636Z M1104 620 1102 622 1101 626 1103 629 1107 630 1110 628 1110 622 1108 620Z M521 619 509 622 513 625 513 645 512 646 509 640 505 636 497 633 489 634 485 636 479 642 476 651 476 661 480 671 485 676 489 678 498 679 505 676 510 671 512 667 514 674 517 677 526 679 522 676 521 672Z M501 634 508 639 512 646 513 663 511 669 506 675 501 678 496 679 492 678 486 671 484 662 484 650 486 641 492 634Z M84 576 84 578 1514 578 1514 576Z M1303 433 1303 434 1310 435 1313 438 1314 442 1314 517 1312 526 1308 529 1305 529 1305 530 1361 531 1378 526 1386 521 1394 513 1403 496 1405 487 1405 474 1402 462 1397 453 1391 446 1379 438 1361 433Z M1329 437 1350 437 1365 441 1375 447 1383 455 1387 461 1392 476 1392 493 1390 502 1386 510 1376 520 1368 524 1357 527 1339 527 1331 525 1326 519 1326 439Z M1245 433 1245 434 1251 435 1254 439 1254 521 1252 527 1245 529 1245 530 1278 530 1278 529 1270 528 1267 524 1266 519 1266 440 1269 435 1275 434 1275 433Z M1216 432 1211 433 1159 433 1159 434 1166 435 1169 438 1170 442 1170 517 1168 526 1166 528 1161 529 1161 530 1214 531 1218 528 1220 516 1219 513 1216 521 1211 525 1192 526 1185 524 1182 520 1182 482 1183 481 1207 482 1210 485 1211 491 1212 491 1214 473 1207 476 1183 476 1182 475 1182 438 1188 437 1189 438 1209 439 1212 442 1213 448 1215 447Z M935 433 935 434 943 435 946 439 946 522 943 528 937 529 937 530 975 530 976 531 994 531 997 530 1000 522 1001 515 1000 513 999 513 997 520 993 524 985 526 965 525 959 519 958 512 958 441 959 437 961 435 969 433 939 433 938 432Z M580 432 579 433 552 433 552 434 558 435 561 439 561 521 559 527 552 529 552 530 586 530 586 529 577 528 574 524 573 518 573 441 574 437 576 435 582 434Z M461 432 457 450 458 452 459 452 463 443 472 438 514 438 515 439 482 489 457 524 455 530 514 530 515 531 527 531 529 530 532 519 532 510 530 511 528 518 524 522 519 524 512 525 472 525 471 523 530 436 530 433 468 433Z M367 432 364 452 366 452 368 445 372 441 379 438 420 438 421 440 388 490 363 525 362 530 423 530 424 531 435 530 438 522 439 510 437 511 434 519 426 524 419 524 418 525 378 525 377 524 436 437 437 433 374 433Z M245 433 245 434 252 435 255 438 256 442 256 499 259 511 266 522 279 530 287 532 308 531 321 525 330 515 334 505 336 492 336 439 339 435 345 434 345 433 342 432 341 433 316 433 316 434 324 435 327 442 327 495 325 507 320 517 315 522 305 527 290 527 284 525 273 515 269 505 268 499 268 440 271 435 277 434 277 433 274 432 273 433Z M1032 431 1022 520 1020 526 1018 528 1012 529 1012 530 1039 530 1039 529 1033 528 1030 525 1034 468 1036 459 1038 461 1066 519 1072 529 1074 530 1076 528 1111 457 1112 458 1114 487 1115 488 1115 497 1118 518 1117 529 1118 530 1134 530 1135 531 1145 530 1145 529 1140 529 1134 527 1130 522 1119 431 1116 432 1077 512 1075 511 1064 488 1062 486 1062 484 1060 482 1060 480 1057 476 1036 433 1034 431Z M1461 430 1457 437 1435 496 1423 524 1418 528 1410 529 1410 530 1440 530 1440 529 1436 529 1433 527 1433 520 1441 498 1444 494 1475 494 1479 500 1489 525 1487 530 1515 530 1515 529 1507 528 1500 521 1495 511 1463 431Z M1459 451 1461 453 1465 466 1469 474 1474 488 1473 489 1446 489 1445 488 1457 453Z M868 413 865 417 830 515 826 523 822 527 812 529 812 530 845 530 845 529 839 528 836 523 842 502 849 485 883 485 899 525 897 530 927 530 927 529 917 527 911 520 902 500 870 415Z M865 436 867 437 876 465 878 468 881 477 880 480 851 480 850 479 862 445 863 439Z M683 419 675 427 671 436 671 448 673 454 678 462 672 466 662 476 657 485 655 492 655 505 657 511 663 521 672 528 682 532 701 532 718 526 730 516 743 526 752 530 779 530 779 529 767 527 757 522 738 508 745 497 750 486 753 474 752 469 738 467 736 468 731 467 730 469 737 470 741 474 742 477 742 485 740 493 734 505 704 477 690 461 684 452 680 438 682 429 687 422 695 418 705 418 710 420 718 427 720 431 720 437 722 440 723 437 723 418 715 414 699 413 691 415Z M677 468 680 466 693 482 715 504 726 513 721 518 708 524 693 525 685 523 680 520 672 512 667 501 666 487 670 476Z M110 413 108 421 107 439 105 448 105 457 104 458 97 524 93 528 86 529 86 530 117 530 118 529 110 528 107 525 107 508 108 507 108 496 109 495 110 473 112 461 112 450 114 445 155 529 157 530 164 518 199 443 201 448 206 512 208 523 206 529 207 530 226 530 227 531 238 530 238 529 232 529 226 527 221 522 219 516 209 417 207 413 199 427 160 511 149 491 149 489 112 414Z M850 188 837 205 842 225 845 246 846 371 863 371 862 253 861 252 860 232 856 208 851 188Z M751 188 750 188 744 213 743 225 741 232 740 251 739 252 738 371 755 371 756 245 759 224 764 205Z M685 128 685 371 702 371 702 149 703 148 717 151 740 164 754 177 768 198 773 188 786 168 800 153 811 163 817 171 833 198 846 178 858 166 881 152 894 148 899 149 899 371 916 371 916 128 893 131 874 137 863 142 852 149 834 165 813 140 801 131 790 138 767 165 754 153 736 141 716 133 698 129Z"/></svg>